<svg width="32" height="32" viewBox="0 0 32 32" fill="none" xmlns="http://www.w3.org/2000/svg">
<path d="M0 8C0 3.58172 3.58172 0 8 0H24C28.4183 0 32 3.58172 32 8V24C32 28.4183 28.4183 32 24 32H8C3.58172 32 0 28.4183 0 24V8Z" fill="#F9FAFB"/>
<path d="M19 22.9844V11.125L13 9.01562V20.875L19 22.9844ZM24.4844 7C24.8281 7 25 7.17188 25 7.51562V22.6094C25 22.8594 24.875 23.0156 24.625 23.0781L19 25L13 22.8906L7.65625 24.9531L7.51562 25C7.17188 25 7 24.8281 7 24.4844V9.39062C7 9.14062 7.125 8.98438 7.375 8.92188L13 7L19 9.10938L24.3438 7.04688L24.4844 7Z" fill="#FA4549"/>
</svg>
