<svg width="148" height="32" viewBox="0 0 148 32" fill="none" xmlns="http://www.w3.org/2000/svg">
<g clip-path="url(#clip0_69_58)">
<path d="M0 8C0 3.58172 3.58172 0 8 0H24C28.4183 0 32 3.58172 32 8V24C32 28.4183 28.4183 32 24 32H8C3.58172 32 0 28.4183 0 24V8Z" fill="#F9FAFB"/>
<path d="M19 22.9844V11.125L13 9.01562V20.875L19 22.9844ZM24.4844 7C24.8281 7 25 7.17188 25 7.51562V22.6094C25 22.8594 24.875 23.0156 24.625 23.0781L19 25L13 22.8906L7.65625 24.9531L7.51562 25C7.17188 25 7 24.8281 7 24.4844V9.39062C7 9.14062 7.125 8.98438 7.375 8.92188L13 7L19 9.10938L24.3438 7.04688L24.4844 7Z" fill="#FA4549"/>
<path d="M48.78 24.5V22H49.64C50.28 22 50.7867 21.82 51.16 21.46C51.5467 21.0867 51.74 20.5933 51.74 19.98V9.6H54.48V19.88C54.48 20.8 54.28 21.6067 53.88 22.3C53.4933 22.9933 52.9333 23.5333 52.2 23.92C51.48 24.3067 50.6267 24.5 49.64 24.5H48.78ZM60.9516 24.74C60.1116 24.74 59.3782 24.5533 58.7516 24.18C58.1382 23.8067 57.6649 23.2867 57.3316 22.62C57.0116 21.9533 56.8516 21.1733 56.8516 20.28V13.62H59.4716V20.06C59.4716 20.5133 59.5582 20.9133 59.7316 21.26C59.9182 21.5933 60.1782 21.86 60.5116 22.06C60.8582 22.2467 61.2449 22.34 61.6716 22.34C62.0982 22.34 62.4782 22.2467 62.8116 22.06C63.1449 21.86 63.4049 21.5867 63.5916 21.24C63.7782 20.8933 63.8716 20.48 63.8716 20V13.62H66.4916V24.5H64.0116V22.36L64.2316 22.74C63.9782 23.4067 63.5582 23.9067 62.9716 24.24C62.3982 24.5733 61.7249 24.74 60.9516 24.74ZM73.067 24.74C71.907 24.74 70.8937 24.4667 70.027 23.92C69.1737 23.36 68.587 22.6067 68.267 21.66L70.227 20.72C70.507 21.3333 70.8937 21.8133 71.387 22.16C71.8937 22.5067 72.4537 22.68 73.067 22.68C73.547 22.68 73.927 22.5733 74.207 22.36C74.487 22.1467 74.627 21.8667 74.627 21.52C74.627 21.3067 74.567 21.1333 74.447 21C74.3404 20.8533 74.187 20.7333 73.987 20.64C73.8004 20.5333 73.5937 20.4467 73.367 20.38L71.587 19.88C70.667 19.6133 69.967 19.2067 69.487 18.66C69.0204 18.1133 68.787 17.4667 68.787 16.72C68.787 16.0533 68.9537 15.4733 69.287 14.98C69.6337 14.4733 70.107 14.08 70.707 13.8C71.3204 13.52 72.0204 13.38 72.807 13.38C73.8337 13.38 74.7404 13.6267 75.527 14.12C76.3137 14.6133 76.8737 15.3067 77.207 16.2L75.207 17.14C75.0204 16.6467 74.707 16.2533 74.267 15.96C73.827 15.6667 73.3337 15.52 72.787 15.52C72.347 15.52 72.0004 15.62 71.747 15.82C71.4937 16.02 71.367 16.28 71.367 16.6C71.367 16.8 71.4204 16.9733 71.527 17.12C71.6337 17.2667 71.7804 17.3867 71.967 17.48C72.167 17.5733 72.3937 17.66 72.647 17.74L74.387 18.26C75.2804 18.5267 75.967 18.9267 76.447 19.46C76.9404 19.9933 77.187 20.6467 77.187 21.42C77.187 22.0733 77.0137 22.6533 76.667 23.16C76.3204 23.6533 75.8404 24.04 75.227 24.32C74.6137 24.6 73.8937 24.74 73.067 24.74ZM84.1605 24.62C82.9338 24.62 81.9805 24.2867 81.3005 23.62C80.6338 22.94 80.3005 21.9867 80.3005 20.76V15.96H78.4205V13.62H78.6205C79.1538 13.62 79.5671 13.48 79.8605 13.2C80.1538 12.92 80.3005 12.5133 80.3005 11.98V11.14H82.9205V13.62H85.4205V15.96H82.9205V20.62C82.9205 20.98 82.9805 21.2867 83.1005 21.54C83.2338 21.7933 83.4338 21.9867 83.7005 22.12C83.9805 22.2533 84.3338 22.32 84.7605 22.32C84.8538 22.32 84.9605 22.3133 85.0805 22.3C85.2138 22.2867 85.3405 22.2733 85.4605 22.26V24.5C85.2738 24.5267 85.0605 24.5533 84.8205 24.58C84.5805 24.6067 84.3605 24.62 84.1605 24.62ZM91.2369 24.5V9.6H93.9569V16.1H100.297V9.6H103.037V24.5H100.297V18.5H93.9569V24.5H91.2369ZM110.845 24.74C109.725 24.74 108.745 24.4867 107.905 23.98C107.065 23.4733 106.412 22.7867 105.945 21.92C105.478 21.0533 105.245 20.0933 105.245 19.04C105.245 17.9467 105.478 16.98 105.945 16.14C106.425 15.2867 107.072 14.6133 107.885 14.12C108.712 13.6267 109.632 13.38 110.645 13.38C111.498 13.38 112.245 13.52 112.885 13.8C113.538 14.08 114.092 14.4667 114.545 14.96C114.998 15.4533 115.345 16.02 115.585 16.66C115.825 17.2867 115.945 17.9667 115.945 18.7C115.945 18.8867 115.932 19.08 115.905 19.28C115.892 19.48 115.858 19.6533 115.805 19.8H107.405V17.8H114.325L113.085 18.74C113.205 18.1267 113.172 17.58 112.985 17.1C112.812 16.62 112.518 16.24 112.105 15.96C111.705 15.68 111.218 15.54 110.645 15.54C110.098 15.54 109.612 15.68 109.185 15.96C108.758 16.2267 108.432 16.6267 108.205 17.16C107.992 17.68 107.912 18.3133 107.965 19.06C107.912 19.7267 107.998 20.32 108.225 20.84C108.465 21.3467 108.812 21.74 109.265 22.02C109.732 22.3 110.265 22.44 110.865 22.44C111.465 22.44 111.972 22.3133 112.385 22.06C112.812 21.8067 113.145 21.4667 113.385 21.04L115.505 22.08C115.292 22.6 114.958 23.06 114.505 23.46C114.052 23.86 113.512 24.1733 112.885 24.4C112.272 24.6267 111.592 24.74 110.845 24.74ZM117.931 24.5V13.62H120.391V16.04L120.191 15.68C120.444 14.8667 120.838 14.3 121.371 13.98C121.918 13.66 122.571 13.5 123.331 13.5H123.971V15.82H123.031C122.284 15.82 121.684 16.0533 121.231 16.52C120.778 16.9733 120.551 17.6133 120.551 18.44V24.5H117.931ZM130.571 24.74C129.451 24.74 128.471 24.4867 127.631 23.98C126.791 23.4733 126.138 22.7867 125.671 21.92C125.205 21.0533 124.971 20.0933 124.971 19.04C124.971 17.9467 125.205 16.98 125.671 16.14C126.151 15.2867 126.798 14.6133 127.611 14.12C128.438 13.6267 129.358 13.38 130.371 13.38C131.225 13.38 131.971 13.52 132.611 13.8C133.265 14.08 133.818 14.4667 134.271 14.96C134.725 15.4533 135.071 16.02 135.311 16.66C135.551 17.2867 135.671 17.9667 135.671 18.7C135.671 18.8867 135.658 19.08 135.631 19.28C135.618 19.48 135.585 19.6533 135.531 19.8H127.131V17.8H134.051L132.811 18.74C132.931 18.1267 132.898 17.58 132.711 17.1C132.538 16.62 132.245 16.24 131.831 15.96C131.431 15.68 130.945 15.54 130.371 15.54C129.825 15.54 129.338 15.68 128.911 15.96C128.485 16.2267 128.158 16.6267 127.931 17.16C127.718 17.68 127.638 18.3133 127.691 19.06C127.638 19.7267 127.725 20.32 127.951 20.84C128.191 21.3467 128.538 21.74 128.991 22.02C129.458 22.3 129.991 22.44 130.591 22.44C131.191 22.44 131.698 22.3133 132.111 22.06C132.538 21.8067 132.871 21.4667 133.111 21.04L135.231 22.08C135.018 22.6 134.685 23.06 134.231 23.46C133.778 23.86 133.238 24.1733 132.611 24.4C131.998 24.6267 131.318 24.74 130.571 24.74Z" fill="black"/>
</g>
<defs>
<clipPath id="clip0_69_58">
<rect width="148" height="32" fill="white"/>
</clipPath>
</defs>
</svg>
