<svg xmlns="http://www.w3.org/2000/svg" fill="currentColor" viewBox="0 0 19 19"><path d="M5.275 8.075q-.575 0-.863-.512a.95.95 0 0 1 .013-1.013L8.15.475A.95.95 0 0 1 9 0a.95.95 0 0 1 .85.475l3.725 6.075q.3.5.012 1.013-.287.512-.862.512zm9.225 11q-1.875 0-3.188-1.312Q10 16.45 10 14.575t1.312-3.188q1.313-1.312 3.188-1.312t3.188 1.312T19 14.575t-1.312 3.188q-1.313 1.312-3.188 1.312m-13.5-.5a.97.97 0 0 1-.712-.288.97.97 0 0 1-.288-.712v-6q0-.425.288-.713A.97.97 0 0 1 1 10.575h6a.97.97 0 0 1 .713.287.97.97 0 0 1 .287.713v6q0 .424-.287.712a.97.97 0 0 1-.713.288z"/></svg>