<svg width="24" height="24" viewBox="0 0 24 24" fill="none" xmlns="http://www.w3.org/2000/svg">
<path d="M18 13H17.32L15.32 15H17.23L19 17H5L6.78 15H8.83L6.83 13H6L3 16V20C3 20.5304 3.21071 21.0392 3.58579 21.4142C3.96086 21.7893 4.46957 22 5 22H19C19.5304 22 20.0391 21.7893 20.4142 21.4142C20.7893 21.0392 21 20.5304 21 20V16L18 13ZM17 7.95001L12.05 12.9L8.5 9.36001L13.46 4.41001L17 7.95001ZM12.76 2.29001L6.39 8.66001C6 9.05001 6 9.68001 6.39 10.07L11.34 15C11.73 15.41 12.36 15.41 12.75 15L19.11 8.66001C19.5 8.27001 19.5 7.64001 19.11 7.25001L14.16 2.30001C13.78 1.90001 13.15 1.90001 12.76 2.29001Z" fill="currentColor"/>
</svg>
